<svg width="31" height="24" viewBox="0 0 31 24" fill="none" xmlns="http://www.w3.org/2000/svg">
<path d="M15.6765 0.00061727C15.7781 0.0308657 15.8796 0.0617314 15.9812 0.0919798C16.7455 0.320386 17.2827 1.04203 17.3074 1.88466C17.3162 2.19147 17.3085 2.49827 17.3085 2.79026C17.7201 2.95879 18.1222 3.08843 18.495 3.28164C20.4869 4.31626 21.6287 6.02191 21.995 8.30535C22.0819 8.84797 22.1001 9.40726 22.1071 9.95914C22.123 11.2111 22.1629 12.4661 22.0989 13.7149C22.0214 15.2359 22.4529 16.586 23.1697 17.8608C23.5267 18.4954 23.9282 19.1028 24.3174 19.717C24.4771 19.9701 24.5839 20.2214 24.4266 20.5165C24.2769 20.7961 24.0292 20.8467 23.7503 20.8461C22.1195 20.843 20.4892 20.8442 18.8584 20.8442C18.7439 20.8442 18.63 20.8442 18.5179 20.8442C18.4298 22.8098 16.9751 24.008 15.4904 24C13.9682 23.9919 12.5645 22.7567 12.4853 20.8628C12.3767 20.8566 12.2639 20.8449 12.1518 20.8449C10.5603 20.8436 8.96879 20.8442 7.37728 20.8442C7.28922 20.8442 7.20116 20.848 7.11369 20.8418C6.57947 20.8047 6.32762 20.3084 6.61469 19.8331C6.9229 19.3226 7.26222 18.8324 7.56807 18.32C8.1839 17.2885 8.66763 16.1977 8.85138 14.9822C8.88484 14.7612 8.88602 14.5328 8.88602 14.3075C8.88895 12.6858 8.87486 11.0641 8.89248 9.44245C8.90833 7.95595 9.25234 6.56206 10.0666 5.32434C10.8767 4.0928 11.9939 3.3156 13.35 2.89891C13.4433 2.8699 13.5373 2.84397 13.6312 2.81557C13.64 2.8131 13.6471 2.80508 13.6899 2.77483C13.6899 2.54581 13.6893 2.29209 13.6899 2.03776C13.694 0.989555 14.2476 0.271618 15.2192 0.0506197C15.2556 0.0425946 15.2891 0.0172848 15.3237 0C15.4411 0 15.5579 0 15.6753 0L15.6765 0.00061727ZM22.7506 19.5701C22.514 19.1701 22.2962 18.8201 22.0948 18.4589C21.2853 17.007 20.8097 15.4718 20.8843 13.7544C20.9418 12.4228 20.906 11.0864 20.8908 9.75234C20.8849 9.25231 20.8602 8.74426 20.7722 8.25412C20.4117 6.24352 19.3603 4.81135 17.487 4.14218C16.2348 3.69525 14.9521 3.69031 13.6852 4.08601C12.2616 4.53047 11.2254 5.47126 10.6073 6.89849C10.2756 7.66396 10.1177 8.47696 10.1118 9.31466C10.1001 10.9975 10.1124 12.6809 10.103 14.3643C10.1012 14.7211 10.0725 15.0828 10.0132 15.4341C9.79537 16.7255 9.26056 17.8824 8.60541 18.9837C8.49445 19.1701 8.38056 19.3541 8.24906 19.5695H22.7511L22.7506 19.5701ZM17.2686 20.8714H13.7322C13.7257 21.8937 14.5183 22.7215 15.4857 22.7295C16.4661 22.7376 17.2739 21.9085 17.2686 20.8714ZM16.0781 2.56926C16.0781 2.31555 16.1033 2.03961 16.071 1.77169C16.0376 1.49514 15.7652 1.29389 15.501 1.29327C15.238 1.29327 14.9632 1.49575 14.9304 1.77046C14.8981 2.03776 14.9233 2.31246 14.9233 2.56926H16.0781Z" fill="black"/>
<path d="M0.499878 8.99306C0.559758 8.54983 0.613177 8.10536 0.680689 7.66336C0.974218 5.73055 1.59474 3.92367 2.58745 2.2168C2.9303 2.43656 3.26492 2.65139 3.58662 2.85757C1.06521 7.70472 1.06639 12.5229 3.58662 17.3799C3.27842 17.5787 2.94967 17.7904 2.5628 18.0398C2.27279 17.4361 1.9728 16.8657 1.71978 16.2737C1.06815 14.7477 0.683038 13.1464 0.556233 11.4778C0.549188 11.3876 0.519251 11.2993 0.499878 11.2105C0.499878 10.4715 0.499878 9.73199 0.499878 8.99306Z" fill="black"/>
<path d="M27.4158 2.85601C27.7357 2.65045 28.0592 2.44179 28.3821 2.23438C31.0479 6.39322 31.3549 13.1763 28.3962 18.0086C28.068 17.7963 27.7387 17.5839 27.4164 17.3759C29.9354 12.5349 29.9366 7.71613 27.4164 2.85663L27.4158 2.85601Z" fill="black"/>
<path d="M6.20345 15.6902C5.86589 15.905 5.54184 16.1106 5.21837 16.3161C3.09909 12.9752 2.76388 7.85151 5.20486 3.90625C5.53068 4.11799 5.85709 4.32973 6.19699 4.55073C4.1646 8.25894 4.23152 11.9567 6.20345 15.6902Z" fill="black"/>
<path d="M25.7954 16.322C25.4537 16.1047 25.1302 15.8985 24.7974 15.6868C26.7646 11.9755 26.8403 8.27776 24.8056 4.5535C24.967 4.4467 25.1291 4.33867 25.2923 4.23188C25.4566 4.12447 25.621 4.01829 25.7848 3.91211C27.9992 7.35734 28.1448 12.457 25.7954 16.322Z" fill="black"/>
</svg>