<svg width="31" height="24" viewBox="0 0 31 24" fill="none" xmlns="http://www.w3.org/2000/svg">
<g clip-path="url(#clip0_3970_45600)">
<path d="M16.9956 19.4963C18.9615 19.4963 20.9274 19.4963 22.8933 19.4963C23.115 19.4963 23.3398 19.4988 23.4528 19.2162C23.5647 18.9374 23.4695 18.7101 23.3116 18.4927C23.0523 18.1352 22.8024 17.7679 22.5503 17.4031C21.7504 16.2435 21.3488 14.918 21.3426 13.4231C21.3384 12.4231 21.3635 11.4183 21.2892 10.4233C21.1313 8.29934 19.5973 6.41987 17.8081 6.07469C15.3842 5.60666 13.2102 7.38049 12.7543 10.2108C12.6947 10.5793 12.6937 10.9625 12.6853 11.3384C12.6654 12.2868 12.7 13.24 12.6362 14.1847C12.5473 15.5077 12.0464 16.6415 11.3155 17.6426C11.0833 17.9608 10.87 18.2962 10.6358 18.6119C10.4998 18.7961 10.4622 18.9865 10.5448 19.2027C10.6305 19.4263 10.7978 19.4963 10.9944 19.4951C11.5602 19.4951 12.1248 19.4951 12.6905 19.4951C14.1252 19.4951 15.561 19.4951 16.9956 19.4951V19.4963Z" fill="#9DB6FE"/>
<path d="M18.5 20H14.5C14.4954 20.9459 15.4183 21.9458 16.3388 21.9971C17.4363 22.0578 18.4057 21.1686 18.5 20Z" fill="#9DB6FE"/>
</g>
<path d="M15.677 0.00061727C15.7786 0.0308657 15.8801 0.0617314 15.9817 0.0919798C16.746 0.320386 17.2832 1.04203 17.3079 1.88466C17.3167 2.19147 17.309 2.49827 17.309 2.79026C17.7206 2.95879 18.1227 3.08843 18.4955 3.28164C20.4874 4.31626 21.6292 6.02191 21.9955 8.30535C22.0824 8.84797 22.1006 9.40726 22.1076 9.95914C22.1235 11.2111 22.1634 12.4661 22.0994 13.7149C22.0219 15.2359 22.4534 16.586 23.1702 17.8608C23.5271 18.4954 23.9287 19.1028 24.3179 19.717C24.4776 19.9701 24.5844 20.2214 24.4271 20.5165C24.2774 20.7961 24.0297 20.8467 23.7508 20.8461C22.12 20.843 20.4897 20.8442 18.8589 20.8442C18.7444 20.8442 18.6305 20.8442 18.5184 20.8442C18.4303 22.8098 16.9756 24.008 15.4909 24C13.9687 23.9919 12.565 22.7567 12.4858 20.8628C12.3772 20.8566 12.2644 20.8449 12.1523 20.8449C10.5608 20.8436 8.96928 20.8442 7.37777 20.8442C7.28971 20.8442 7.20165 20.848 7.11418 20.8418C6.57996 20.8047 6.32811 20.3084 6.61518 19.8331C6.92339 19.3226 7.26271 18.8324 7.56856 18.32C8.18439 17.2885 8.66812 16.1977 8.85187 14.9822C8.88533 14.7612 8.88651 14.5328 8.88651 14.3075C8.88944 12.6858 8.87535 11.0641 8.89296 9.44245C8.90882 7.95595 9.25283 6.56206 10.0671 5.32434C10.8772 4.0928 11.9944 3.3156 13.3505 2.89891C13.4438 2.8699 13.5378 2.84397 13.6317 2.81557C13.6405 2.8131 13.6475 2.80508 13.6904 2.77483C13.6904 2.54581 13.6898 2.29209 13.6904 2.03776C13.6945 0.989555 14.2481 0.271618 15.2197 0.0506197C15.2561 0.0425946 15.2895 0.0172848 15.3242 0C15.4416 0 15.5584 0 15.6758 0L15.677 0.00061727ZM22.751 19.5701C22.5145 19.1701 22.2967 18.8201 22.0953 18.4589C21.2858 17.007 20.8102 15.4718 20.8848 13.7544C20.9423 12.4228 20.9065 11.0864 20.8912 9.75234C20.8854 9.25231 20.8607 8.74426 20.7727 8.25412C20.4122 6.24352 19.3608 4.81135 17.4875 4.14218C16.2353 3.69525 14.9526 3.69031 13.6857 4.08601C12.2621 4.53047 11.2259 5.47126 10.6078 6.89849C10.2761 7.66396 10.1182 8.47696 10.1123 9.31466C10.1005 10.9975 10.1129 12.6809 10.1035 14.3643C10.1017 14.7211 10.073 15.0828 10.0137 15.4341C9.79586 16.7255 9.26105 17.8824 8.6059 18.9837C8.49494 19.1701 8.38105 19.3541 8.24955 19.5695H22.7516L22.751 19.5701ZM17.2691 20.8714H13.7327C13.7262 21.8937 14.5187 22.7215 15.4862 22.7295C16.4666 22.7376 17.2744 21.9085 17.2691 20.8714ZM16.0786 2.56926C16.0786 2.31555 16.1038 2.03961 16.0715 1.77169C16.038 1.49514 15.7656 1.29389 15.5015 1.29327C15.2385 1.29327 14.9637 1.49575 14.9309 1.77046C14.8986 2.03776 14.9238 2.31246 14.9238 2.56926H16.0786Z" fill="#0066DB"/>
<path d="M0.5 8.99306C0.55988 8.54983 0.6133 8.10536 0.680811 7.66336C0.97434 5.73055 1.59486 3.92367 2.58758 2.2168C2.93042 2.43656 3.26504 2.65139 3.58675 2.85757C1.06533 7.70472 1.06651 12.5229 3.58675 17.3799C3.27854 17.5787 2.94979 17.7904 2.56292 18.0398C2.27291 17.4361 1.97293 16.8657 1.7199 16.2737C1.06827 14.7477 0.68316 13.1464 0.556355 11.4778C0.549311 11.3876 0.519373 11.2993 0.5 11.2105C0.5 10.4715 0.5 9.73199 0.5 8.99306Z" fill="#0066DB"/>
<path d="M27.416 2.85601C27.736 2.65045 28.0594 2.44179 28.3823 2.23438C31.0481 6.39322 31.3552 13.1763 28.3964 18.0086C28.0682 17.7963 27.7389 17.5839 27.4166 17.3759C29.9357 12.5349 29.9368 7.71613 27.4166 2.85663L27.416 2.85601Z" fill="#0066DB"/>
<path d="M6.20345 15.6902C5.86589 15.905 5.54184 16.1106 5.21837 16.3161C3.09909 12.9752 2.76388 7.85151 5.20486 3.90625C5.53068 4.11799 5.85709 4.32973 6.19699 4.55073C4.1646 8.25894 4.23152 11.9567 6.20345 15.6902Z" fill="#0066DB"/>
<path d="M25.7954 16.322C25.4537 16.1047 25.1302 15.8985 24.7974 15.6868C26.7646 11.9755 26.8403 8.27776 24.8056 4.5535C24.967 4.4467 25.1291 4.33867 25.2923 4.23188C25.4566 4.12447 25.621 4.01829 25.7848 3.91211C27.9992 7.35734 28.1448 12.457 25.7954 16.322Z" fill="#0066DB"/>
<defs>
<clipPath id="clip0_3970_45600">
<rect width="13" height="17" fill="white" transform="matrix(-1 0 0 1 23.5 6)"/>
</clipPath>
</defs>
</svg>
