<svg width="21" height="24" viewBox="0 0 21 24" fill="none" xmlns="http://www.w3.org/2000/svg">
<rect x="4" y="6" width="16" height="15" rx="2" fill="#9DB6FE"/>
<path d="M5.25 0C5.71875 0.03125 5.96875 0.28125 6 0.75V3H15V0.75C15.0312 0.28125 15.2812 0.03125 15.75 0C16.2188 0.03125 16.4688 0.28125 16.5 0.75V3H18C18.8438 3.03125 19.5469 3.32812 20.1094 3.89062C20.6719 4.45312 20.9688 5.15625 21 6V21C20.9688 21.8438 20.6719 22.5469 20.1094 23.1094C19.5469 23.6719 18.8438 23.9688 18 24H3C2.15625 23.9688 1.45312 23.6719 0.890625 23.1094C0.328125 22.5469 0.03125 21.8438 0 21V6C0.03125 5.15625 0.328125 4.45312 0.890625 3.89062C1.45312 3.32812 2.15625 3.03125 3 3H4.5V0.75C4.53125 0.28125 4.78125 0.03125 5.25 0ZM19.5 9H1.5V21C1.5 21.4375 1.64062 21.7969 1.92188 22.0781C2.20312 22.3594 2.5625 22.5 3 22.5H18C18.4375 22.5 18.7969 22.3594 19.0781 22.0781C19.3594 21.7969 19.5 21.4375 19.5 21V9ZM18 4.5H3C2.5625 4.5 2.20312 4.64062 1.92188 4.92188C1.64062 5.20312 1.5 5.5625 1.5 6V7.5H19.5V6C19.5 5.5625 19.3594 5.20312 19.0781 4.92188C18.7969 4.64062 18.4375 4.5 18 4.5Z" fill="#0067DD"/>
</svg>
