<svg width="27" height="24" viewBox="0 0 27 24" fill="none" xmlns="http://www.w3.org/2000/svg">
<path d="M7.33215 10.2014L14.8637 3.55599C15.228 3.23454 15.7706 3.22145 16.15 3.52496L22.6185 8.69976C22.8557 8.88953 22.9938 9.17684 22.9938 9.48063V22C22.9938 22.5523 22.5461 23 21.9938 23H16.9938C16.4415 23 15.9938 22.5523 15.9938 22V15C15.9938 14.4477 15.5461 14 14.9938 14H11.4938C10.9415 14 10.4938 14.4477 10.4938 15V22C10.4938 22.5523 10.0461 23 9.49377 23H7.99377C7.44149 23 6.99377 22.5523 6.99377 22V10.9513C6.99377 10.6644 7.11701 10.3913 7.33215 10.2014Z" fill="white"/>
<path d="M26.7717 11.4375C27.0842 11.75 27.0842 12.1094 26.7717 12.5156C26.4905 12.8281 26.1467 12.8281 25.7405 12.5156L24.0061 10.9688V20.25C23.9749 21.3125 23.6155 22.2031 22.928 22.9219C22.2092 23.6094 21.3186 23.9688 20.2561 24H6.75611C5.69361 23.9688 4.80298 23.6094 4.08423 22.9219C3.39673 22.2031 3.03736 21.3125 3.00611 20.25V10.9688L1.27173 12.5156C0.896735 12.8281 0.53736 12.8281 0.19361 12.5156C-0.0876401 12.1094 -0.0720151 11.75 0.240485 11.4375L12.9905 0.1875C13.3342 -0.0625 13.678 -0.0625 14.0217 0.1875L26.7717 11.4375ZM6.75611 22.5H9.75611V15C9.75611 14.5625 9.89674 14.2031 10.178 13.9219C10.4592 13.6406 10.8186 13.5 11.2561 13.5H15.7561C16.1936 13.5 16.553 13.6406 16.8342 13.9219C17.1155 14.2031 17.2561 14.5625 17.2561 15V22.5H20.2561C20.8811 22.4688 21.4124 22.25 21.8499 21.8438C22.2561 21.4062 22.4749 20.875 22.5061 20.25V9.70312L13.5061 1.73438L4.50611 9.70312V20.25C4.53736 20.875 4.75611 21.4062 5.16236 21.8438C5.59986 22.25 6.13111 22.4688 6.75611 22.5ZM11.2561 22.5H15.7561V15H11.2561V22.5Z" fill="#202124"/>
</svg>
