<svg width="27" height="24" viewBox="0 0 27 24" fill="none" xmlns="http://www.w3.org/2000/svg">
<path d="M26.7718 11.4375C27.0843 11.75 27.0843 12.1094 26.7718 12.5156C26.4905 12.8281 26.1468 12.8281 25.7405 12.5156L24.0062 10.9688V20.25C23.9749 21.3125 23.6155 22.2031 22.928 22.9219C22.2093 23.6094 21.3187 23.9688 20.2562 24H6.75617C5.69367 23.9688 4.80305 23.6094 4.0843 22.9219C3.3968 22.2031 3.03742 21.3125 3.00617 20.25V10.9688L1.2718 12.5156C0.896796 12.8281 0.537421 12.8281 0.193671 12.5156C-0.087579 12.1094 -0.071954 11.75 0.240546 11.4375L12.9905 0.1875C13.3343 -0.0625 13.678 -0.0625 14.0218 0.1875L26.7718 11.4375ZM6.75617 22.5H9.75617V15C9.75617 14.5625 9.8968 14.2031 10.178 13.9219C10.4593 13.6406 10.8187 13.5 11.2562 13.5H15.7562C16.1937 13.5 16.553 13.6406 16.8343 13.9219C17.1155 14.2031 17.2562 14.5625 17.2562 15V22.5H20.2562C20.8812 22.4688 21.4124 22.25 21.8499 21.8438C22.2562 21.4062 22.4749 20.875 22.5062 20.25V9.70312L13.5062 1.73438L4.50617 9.70312V20.25C4.53742 20.875 4.75617 21.4062 5.16242 21.8438C5.59992 22.25 6.13117 22.4688 6.75617 22.5ZM11.2562 22.5H15.7562V15H11.2562V22.5Z" fill="#0067DD"/>
</svg>
