<svg width="27" height="24" viewBox="0 0 27 24" fill="none" xmlns="http://www.w3.org/2000/svg">
<path d="M7.33221 10.2014L14.8637 3.55599C15.228 3.23454 15.7707 3.22145 16.15 3.52496L22.6185 8.69976C22.8557 8.88953 22.9938 9.17684 22.9938 9.48063V22C22.9938 22.5523 22.5461 23 21.9938 23H16.9938C16.4416 23 15.9938 22.5523 15.9938 22V15C15.9938 14.4477 15.5461 14 14.9938 14H11.4938C10.9416 14 10.4938 14.4477 10.4938 15V22C10.4938 22.5523 10.0461 23 9.49384 23H7.99384C7.44155 23 6.99384 22.5523 6.99384 22V10.9513C6.99384 10.6644 7.11707 10.3913 7.33221 10.2014Z" fill="#9DB6FE"/>
<path d="M26.7718 11.4375C27.0843 11.75 27.0843 12.1094 26.7718 12.5156C26.4905 12.8281 26.1468 12.8281 25.7405 12.5156L24.0062 10.9688V20.25C23.9749 21.3125 23.6155 22.2031 22.928 22.9219C22.2093 23.6094 21.3187 23.9688 20.2562 24H6.75617C5.69367 23.9688 4.80305 23.6094 4.0843 22.9219C3.3968 22.2031 3.03742 21.3125 3.00617 20.25V10.9688L1.2718 12.5156C0.896796 12.8281 0.537421 12.8281 0.193671 12.5156C-0.087579 12.1094 -0.071954 11.75 0.240546 11.4375L12.9905 0.1875C13.3343 -0.0625 13.678 -0.0625 14.0218 0.1875L26.7718 11.4375ZM6.75617 22.5H9.75617V15C9.75617 14.5625 9.8968 14.2031 10.178 13.9219C10.4593 13.6406 10.8187 13.5 11.2562 13.5H15.7562C16.1937 13.5 16.553 13.6406 16.8343 13.9219C17.1155 14.2031 17.2562 14.5625 17.2562 15V22.5H20.2562C20.8812 22.4688 21.4124 22.25 21.8499 21.8438C22.2562 21.4062 22.4749 20.875 22.5062 20.25V9.70312L13.5062 1.73438L4.50617 9.70312V20.25C4.53742 20.875 4.75617 21.4062 5.16242 21.8438C5.59992 22.25 6.13117 22.4688 6.75617 22.5ZM11.2562 22.5H15.7562V15H11.2562V22.5Z" fill="#0067DD"/>
</svg>