<svg width="183" height="203" viewBox="0 0 183 203" fill="none" xmlns="http://www.w3.org/2000/svg">
<path d="M107.067 72.3174C107.067 90.4657 91.7467 105.178 75.132 105.178C58.5174 105.178 50.1396 93.7054 50.1396 75.5572C50.1396 57.4089 66.8482 42.6968 83.4628 42.6968C100.077 42.6968 107.067 54.1691 107.067 72.3174Z" fill="#DF1A0C"/>
<path d="M163.529 69.5938C163.529 75.5088 159.223 79.248 153.55 79.248C147.876 79.248 145.479 74.518 145.479 68.6031C145.479 62.6881 149.062 58.8838 154.735 58.8838C160.408 58.8838 163.529 63.6788 163.529 69.5938Z" fill="#DF1A0C"/>
<path d="M136.058 137.574C129.068 137.574 124.649 132.496 124.649 125.805C124.649 119.113 130.239 116.285 137.229 116.285C144.22 116.285 148.716 120.511 148.716 127.203C148.716 133.894 143.049 137.574 136.058 137.574Z" fill="#DF1A0C"/>
<path d="M140.384 52.1324C140.384 60.4671 133.16 67.2238 125.325 67.2238C117.491 67.2238 113.54 61.955 113.54 53.6202C113.54 45.2855 121.419 38.5288 129.253 38.5288C137.088 38.5288 140.384 43.7976 140.384 52.1324Z" fill="#DF1A0C"/>
<path d="M52.9127 52.8813C48.7473 58.7128 43.9675 64.9146 38.5644 64.9146C33.1613 64.9146 38.5615 49.5764 40.8792 46.4017C45.9703 40.3851 48.4372 35.7568 53.8403 35.7568C59.2435 35.7568 57.5409 46.4017 52.9127 52.8813Z" fill="#DF1A0C"/>
<path d="M84.3895 33.8992C77.8311 36.7879 72.819 39.4531 66.7992 36.6761C63.5624 28.3453 73.383 21.9746 76.9965 20.4276C84.4454 17.8522 88.9291 15.1314 93.5754 17.8892C98.2217 20.647 91.6767 30.6895 84.3895 33.8992Z" fill="#DF1A0C"/>
<path d="M116.283 15.1467C112.025 16.104 108.691 17.105 105.723 14.7876C105.313 9.51569 112.045 6.87804 114.384 6.37685C119.098 5.7049 122.139 4.61121 124.323 6.76163C126.507 8.91206 121.015 14.0829 116.283 15.1467Z" fill="#DF1A0C"/>
<path d="M113.997 37.5979C107.439 40.4866 103.075 42.5371 96.8746 38.5236C93.6378 30.1927 101.884 24.4367 105.497 22.8898C112.946 20.3143 117.43 17.5935 122.076 20.3513C126.723 23.1091 121.284 34.3883 113.997 37.5979Z" fill="#DF1A0C"/>
<path d="M141.261 27.5851C138.022 29.7444 135.88 31.2498 132.187 29.6829C129.676 25.5289 133.549 21.6777 135.337 20.5118C139.081 18.4368 141.225 16.5615 143.969 17.602C146.713 18.6425 144.859 25.1859 141.261 27.5851Z" fill="#DF1A0C"/>
<path d="M143.166 92.2282C143.166 102.445 136.886 109.802 127.43 109.802C117.975 109.802 110.769 104.269 110.769 94.0521C110.769 83.8353 117.975 76.9414 127.43 76.9414C136.886 76.9414 143.166 82.0114 143.166 92.2282Z" fill="#DF1A0C"/>
<path d="M113.545 122.378C113.545 132.483 107.265 139.952 97.8091 139.952C91.7924 138.5 81.1475 132.595 81.1475 122.378C81.1475 112.161 89.4783 108.879 95.4949 108.879C104.95 108.879 110.305 112.582 113.545 122.378Z" fill="#DF1A0C"/>
<path d="M71.8955 123.04C74.475 130.634 70.853 137.114 63.5588 137.114C58.9174 135.989 51.5364 131.644 48.7543 123.04C45.9723 114.435 49.6668 107.493 54.3082 107.493C61.6024 107.493 68.187 112.121 71.8955 123.04Z" fill="#DF1A0C"/>
<path d="M89.4429 144.02C92.3526 147.462 91.8203 151.594 88.0437 153.091C85.4075 153.455 80.6854 152.697 77.4616 148.769C74.2379 144.841 74.7118 140.452 77.1149 139.5C80.8915 138.003 85.2599 139.072 89.4429 144.02Z" fill="#DF1A0C"/>
<path d="M45.0443 99.6249C42.8844 107.349 41.345 108.421 36.254 108.421C30.7001 106.107 29.3116 94.9992 30.2411 85.7418C31.1707 76.4843 34.5693 75.5586 38.5829 75.5582C43.2027 75.5578 48.1493 88.52 45.0443 99.6249Z" fill="#DF1A0C"/>
<path d="M12.672 180.356H7.568V194.326H5.445V180.356H0.33V178.563H12.672V180.356ZM16.3247 184.668C16.8014 184.162 17.3294 183.758 17.9087 183.458C18.488 183.157 19.1554 183.007 19.9107 183.007C20.5194 183.007 21.0547 183.109 21.5167 183.315C21.986 183.513 22.3747 183.799 22.6827 184.173C22.998 184.539 23.2364 184.983 23.3977 185.504C23.559 186.024 23.6397 186.6 23.6397 187.231V194.326H21.6707V187.231C21.6707 186.387 21.4764 185.735 21.0877 185.273C20.7064 184.803 20.1234 184.569 19.3387 184.569C18.7594 184.569 18.2167 184.708 17.7107 184.987C17.212 185.265 16.75 185.643 16.3247 186.12V194.326H14.3557V178.123H16.3247V184.668ZM34.0813 187.539C34.0813 187.084 34.0153 186.67 33.8833 186.296C33.7586 185.914 33.5716 185.588 33.3223 185.317C33.0803 185.038 32.7833 184.825 32.4313 184.679C32.0793 184.525 31.6796 184.448 31.2323 184.448C30.2936 184.448 29.5493 184.723 28.9993 185.273C28.4566 185.815 28.1193 186.571 27.9873 187.539H34.0813ZM35.6653 192.764C35.4233 193.057 35.1336 193.314 34.7963 193.534C34.4589 193.746 34.0959 193.922 33.7073 194.062C33.3259 194.201 32.9299 194.304 32.5193 194.37C32.1086 194.443 31.7016 194.48 31.2983 194.48C30.5283 194.48 29.8169 194.351 29.1643 194.095C28.5189 193.831 27.9579 193.449 27.4813 192.951C27.0119 192.445 26.6453 191.821 26.3813 191.081C26.1173 190.34 25.9853 189.489 25.9853 188.529C25.9853 187.751 26.1026 187.025 26.3373 186.351C26.5793 185.676 26.9239 185.093 27.3713 184.602C27.8186 184.103 28.3649 183.714 29.0103 183.436C29.6556 183.15 30.3816 183.007 31.1883 183.007C31.8556 183.007 32.4716 183.12 33.0363 183.348C33.6083 183.568 34.0996 183.89 34.5103 184.316C34.9283 184.734 35.2546 185.254 35.4893 185.878C35.7239 186.494 35.8413 187.198 35.8413 187.99C35.8413 188.298 35.8083 188.503 35.7423 188.606C35.6763 188.708 35.5516 188.76 35.3683 188.76H27.9213C27.9433 189.464 28.0386 190.076 28.2073 190.597C28.3833 191.117 28.6253 191.554 28.9333 191.906C29.2413 192.25 29.6079 192.511 30.0333 192.687C30.4586 192.855 30.9353 192.94 31.4633 192.94C31.9546 192.94 32.3763 192.885 32.7283 192.775C33.0876 192.657 33.3956 192.533 33.6523 192.401C33.9089 192.269 34.1216 192.148 34.2903 192.038C34.4663 191.92 34.6166 191.862 34.7413 191.862C34.9026 191.862 35.0273 191.924 35.1153 192.049L35.6653 192.764ZM54.0612 192.588L54.0502 194.326H44.3372V178.563H54.0502V180.301H46.4712V185.537H52.6092V187.209H46.4712V192.588H54.0612ZM56.2717 194.326V183.183H57.4487C57.7274 183.183 57.8997 183.318 57.9657 183.59L58.1087 184.734C58.5194 184.228 58.9814 183.813 59.4947 183.491C60.008 183.168 60.602 183.007 61.2767 183.007C62.0247 183.007 62.6297 183.216 63.0917 183.634C63.561 184.052 63.8984 184.616 64.1037 185.328C64.265 184.924 64.4704 184.576 64.7197 184.283C64.9764 183.989 65.2624 183.747 65.5777 183.557C65.893 183.366 66.2267 183.227 66.5787 183.139C66.938 183.051 67.301 183.007 67.6677 183.007C68.2544 183.007 68.775 183.102 69.2297 183.293C69.6917 183.476 70.0804 183.747 70.3957 184.107C70.7184 184.466 70.964 184.91 71.1327 185.438C71.3014 185.958 71.3857 186.556 71.3857 187.231V194.326H69.4167V187.231C69.4167 186.358 69.226 185.698 68.8447 185.251C68.4634 184.796 67.9134 184.569 67.1947 184.569C66.872 184.569 66.564 184.627 66.2707 184.745C65.9847 184.855 65.7317 185.02 65.5117 185.24C65.2917 185.46 65.1157 185.738 64.9837 186.076C64.859 186.406 64.7967 186.791 64.7967 187.231V194.326H62.8277V187.231C62.8277 186.336 62.648 185.669 62.2887 185.229C61.9294 184.789 61.405 184.569 60.7157 184.569C60.2317 184.569 59.7844 184.701 59.3737 184.965C58.963 185.221 58.5854 185.573 58.2407 186.021V194.326H56.2717ZM76.3305 191.642C76.6899 192.126 77.0822 192.467 77.5075 192.665C77.9329 192.863 78.4095 192.962 78.9375 192.962C79.9789 192.962 80.7782 192.591 81.3355 191.851C81.8929 191.11 82.1715 190.054 82.1715 188.683C82.1715 187.957 82.1055 187.333 81.9735 186.813C81.8489 186.292 81.6655 185.867 81.4235 185.537C81.1815 185.199 80.8845 184.954 80.5325 184.8C80.1805 184.646 79.7809 184.569 79.3335 184.569C78.6955 184.569 78.1345 184.715 77.6505 185.009C77.1739 185.302 76.7339 185.716 76.3305 186.252V191.642ZM76.2315 184.91C76.7009 184.33 77.2435 183.865 77.8595 183.513C78.4755 183.161 79.1795 182.985 79.9715 182.985C80.6169 182.985 81.1999 183.109 81.7205 183.359C82.2412 183.601 82.6849 183.964 83.0515 184.448C83.4182 184.924 83.7005 185.518 83.8985 186.23C84.0965 186.941 84.1955 187.759 84.1955 188.683C84.1955 189.504 84.0855 190.27 83.8655 190.982C83.6455 191.686 83.3265 192.298 82.9085 192.819C82.4979 193.332 81.9919 193.739 81.3905 194.04C80.7965 194.333 80.1255 194.48 79.3775 194.48C78.6955 194.48 78.1089 194.366 77.6175 194.139C77.1335 193.904 76.7045 193.581 76.3305 193.171V198.099H74.3615V183.183H75.5385C75.8172 183.183 75.9895 183.318 76.0555 183.59L76.2315 184.91ZM88.7176 178.123V194.326H86.7596V178.123H88.7176ZM96.5898 183.007C97.4038 183.007 98.1371 183.142 98.7898 183.414C99.4425 183.685 99.9998 184.07 100.462 184.569C100.924 185.067 101.276 185.672 101.518 186.384C101.767 187.088 101.892 187.876 101.892 188.749C101.892 189.629 101.767 190.421 101.518 191.125C101.276 191.829 100.924 192.43 100.462 192.929C99.9998 193.427 99.4425 193.812 98.7898 194.084C98.1371 194.348 97.4038 194.48 96.5898 194.48C95.7685 194.48 95.0278 194.348 94.3678 194.084C93.7151 193.812 93.1578 193.427 92.6958 192.929C92.2338 192.43 91.8781 191.829 91.6288 191.125C91.3868 190.421 91.2658 189.629 91.2658 188.749C91.2658 187.876 91.3868 187.088 91.6288 186.384C91.8781 185.672 92.2338 185.067 92.6958 184.569C93.1578 184.07 93.7151 183.685 94.3678 183.414C95.0278 183.142 95.7685 183.007 96.5898 183.007ZM96.5898 192.951C97.6898 192.951 98.5111 192.584 99.0538 191.851C99.5965 191.11 99.8678 190.08 99.8678 188.76C99.8678 187.432 99.5965 186.398 99.0538 185.658C98.5111 184.917 97.6898 184.547 96.5898 184.547C96.0325 184.547 95.5448 184.642 95.1268 184.833C94.7161 185.023 94.3715 185.298 94.0928 185.658C93.8215 186.017 93.6161 186.461 93.4768 186.989C93.3448 187.509 93.2788 188.1 93.2788 188.76C93.2788 190.08 93.5501 191.11 94.0928 191.851C94.6428 192.584 95.4751 192.951 96.5898 192.951ZM113.645 183.183L107.43 197.615C107.364 197.761 107.28 197.879 107.177 197.967C107.082 198.055 106.932 198.099 106.726 198.099H105.274L107.309 193.677L102.711 183.183H104.405C104.574 183.183 104.706 183.227 104.801 183.315C104.904 183.395 104.974 183.487 105.01 183.59L107.991 190.608C108.109 190.916 108.208 191.238 108.288 191.576C108.391 191.231 108.501 190.905 108.618 190.597L111.511 183.59C111.555 183.472 111.629 183.377 111.731 183.304C111.841 183.223 111.962 183.183 112.094 183.183H113.645ZM122.532 187.539C122.532 187.084 122.466 186.67 122.334 186.296C122.21 185.914 122.023 185.588 121.773 185.317C121.531 185.038 121.234 184.825 120.882 184.679C120.53 184.525 120.131 184.448 119.683 184.448C118.745 184.448 118 184.723 117.45 185.273C116.908 185.815 116.57 186.571 116.438 187.539H122.532ZM124.116 192.764C123.874 193.057 123.585 193.314 123.247 193.534C122.91 193.746 122.547 193.922 122.158 194.062C121.777 194.201 121.381 194.304 120.97 194.37C120.56 194.443 120.153 194.48 119.749 194.48C118.979 194.48 118.268 194.351 117.615 194.095C116.97 193.831 116.409 193.449 115.932 192.951C115.463 192.445 115.096 191.821 114.832 191.081C114.568 190.34 114.436 189.489 114.436 188.529C114.436 187.751 114.554 187.025 114.788 186.351C115.03 185.676 115.375 185.093 115.822 184.602C116.27 184.103 116.816 183.714 117.461 183.436C118.107 183.15 118.833 183.007 119.639 183.007C120.307 183.007 120.923 183.12 121.487 183.348C122.059 183.568 122.551 183.89 122.961 184.316C123.379 184.734 123.706 185.254 123.94 185.878C124.175 186.494 124.292 187.198 124.292 187.99C124.292 188.298 124.259 188.503 124.193 188.606C124.127 188.708 124.003 188.76 123.819 188.76H116.372C116.394 189.464 116.49 190.076 116.658 190.597C116.834 191.117 117.076 191.554 117.384 191.906C117.692 192.25 118.059 192.511 118.484 192.687C118.91 192.855 119.386 192.94 119.914 192.94C120.406 192.94 120.827 192.885 121.179 192.775C121.539 192.657 121.847 192.533 122.103 192.401C122.36 192.269 122.573 192.148 122.741 192.038C122.917 191.92 123.068 191.862 123.192 191.862C123.354 191.862 123.478 191.924 123.566 192.049L124.116 192.764ZM134.155 187.539C134.155 187.084 134.089 186.67 133.957 186.296C133.833 185.914 133.646 185.588 133.396 185.317C133.154 185.038 132.857 184.825 132.505 184.679C132.153 184.525 131.754 184.448 131.306 184.448C130.368 184.448 129.623 184.723 129.073 185.273C128.531 185.815 128.193 186.571 128.061 187.539H134.155ZM135.739 192.764C135.497 193.057 135.208 193.314 134.87 193.534C134.533 193.746 134.17 193.922 133.781 194.062C133.4 194.201 133.004 194.304 132.593 194.37C132.183 194.443 131.776 194.48 131.372 194.48C130.602 194.48 129.891 194.351 129.238 194.095C128.593 193.831 128.032 193.449 127.555 192.951C127.086 192.445 126.719 191.821 126.455 191.081C126.191 190.34 126.059 189.489 126.059 188.529C126.059 187.751 126.177 187.025 126.411 186.351C126.653 185.676 126.998 185.093 127.445 184.602C127.893 184.103 128.439 183.714 129.084 183.436C129.73 183.15 130.456 183.007 131.262 183.007C131.93 183.007 132.546 183.12 133.11 183.348C133.682 183.568 134.174 183.89 134.584 184.316C135.002 184.734 135.329 185.254 135.563 185.878C135.798 186.494 135.915 187.198 135.915 187.99C135.915 188.298 135.882 188.503 135.816 188.606C135.75 188.708 135.626 188.76 135.442 188.76H127.995C128.017 189.464 128.113 190.076 128.281 190.597C128.457 191.117 128.699 191.554 129.007 191.906C129.315 192.25 129.682 192.511 130.107 192.687C130.533 192.855 131.009 192.94 131.537 192.94C132.029 192.94 132.45 192.885 132.802 192.775C133.162 192.657 133.47 192.533 133.726 192.401C133.983 192.269 134.196 192.148 134.364 192.038C134.54 191.92 134.691 191.862 134.815 191.862C134.977 191.862 135.101 191.924 135.189 192.049L135.739 192.764Z" fill="#607290"/>
<path d="M152.661 188.386L150.483 182.6C150.307 182.152 150.128 181.584 149.944 180.895C149.864 181.239 149.776 181.558 149.68 181.852C149.585 182.138 149.497 182.391 149.416 182.611L147.238 188.386H152.661ZM157.534 194.326H155.543C155.316 194.326 155.133 194.271 154.993 194.161C154.854 194.043 154.748 193.9 154.674 193.732L153.354 190.234H146.534L145.214 193.732C145.156 193.878 145.053 194.014 144.906 194.139C144.76 194.263 144.576 194.326 144.356 194.326H142.365L148.646 178.486H151.253L157.534 194.326ZM161.265 191.51C161.595 191.935 161.954 192.236 162.343 192.412C162.739 192.58 163.175 192.665 163.652 192.665C164.576 192.665 165.295 192.327 165.808 191.653C166.329 190.978 166.589 189.973 166.589 188.639C166.589 187.949 166.53 187.363 166.413 186.879C166.296 186.387 166.127 185.988 165.907 185.68C165.687 185.372 165.419 185.148 165.104 185.009C164.789 184.869 164.433 184.8 164.037 184.8C163.436 184.8 162.915 184.932 162.475 185.196C162.042 185.452 161.639 185.823 161.265 186.307V191.51ZM161.144 184.734C161.613 184.184 162.145 183.74 162.739 183.403C163.34 183.065 164.037 182.897 164.829 182.897C165.46 182.897 166.032 183.025 166.545 183.282C167.058 183.531 167.498 183.898 167.865 184.382C168.232 184.866 168.514 185.467 168.712 186.186C168.917 186.897 169.02 187.715 169.02 188.639C169.02 189.467 168.906 190.241 168.679 190.96C168.459 191.671 168.14 192.291 167.722 192.819C167.304 193.339 166.798 193.75 166.204 194.051C165.61 194.344 164.939 194.491 164.191 194.491C163.531 194.491 162.97 194.384 162.508 194.172C162.053 193.959 161.639 193.666 161.265 193.292V198.055H158.9V183.106H160.33C160.653 183.106 160.858 183.256 160.946 183.557L161.144 184.734ZM173.683 191.51C174.013 191.935 174.372 192.236 174.761 192.412C175.157 192.58 175.593 192.665 176.07 192.665C176.994 192.665 177.713 192.327 178.226 191.653C178.747 190.978 179.007 189.973 179.007 188.639C179.007 187.949 178.948 187.363 178.831 186.879C178.714 186.387 178.545 185.988 178.325 185.68C178.105 185.372 177.837 185.148 177.522 185.009C177.207 184.869 176.851 184.8 176.455 184.8C175.854 184.8 175.333 184.932 174.893 185.196C174.46 185.452 174.057 185.823 173.683 186.307V191.51ZM173.562 184.734C174.031 184.184 174.563 183.74 175.157 183.403C175.758 183.065 176.455 182.897 177.247 182.897C177.878 182.897 178.45 183.025 178.963 183.282C179.476 183.531 179.916 183.898 180.283 184.382C180.65 184.866 180.932 185.467 181.13 186.186C181.335 186.897 181.438 187.715 181.438 188.639C181.438 189.467 181.324 190.241 181.097 190.96C180.877 191.671 180.558 192.291 180.14 192.819C179.722 193.339 179.216 193.75 178.622 194.051C178.028 194.344 177.357 194.491 176.609 194.491C175.949 194.491 175.388 194.384 174.926 194.172C174.471 193.959 174.057 193.666 173.683 193.292V198.055H171.318V183.106H172.748C173.071 183.106 173.276 183.256 173.364 183.557L173.562 184.734Z" fill="#0067DD"/>
</svg>
