<svg width="25" height="24" viewBox="0 0 25 24" fill="none" xmlns="http://www.w3.org/2000/svg">
<path d="M5 2.13281H7H9C10.1046 2.13281 11 3.02824 11 4.13281V8.13281C11 9.23738 10.1046 10.1328 9 10.1328H5C3.89543 10.1328 3 9.23738 3 8.13281V4.13281C3 3.02824 3.89543 2.13281 5 2.13281Z" stroke="#000A16" stroke-width="1.2"/>
<path d="M16 2.13281H18H20C21.1046 2.13281 22 3.02824 22 4.13281V8.13281C22 9.23738 21.1046 10.1328 20 10.1328H16C14.8954 10.1328 14 9.23738 14 8.13281V4.13281C14 3.02824 14.8954 2.13281 16 2.13281Z" stroke="#000A16" stroke-width="1.2"/>
<path d="M4.54297 13.5H6.54297H8.54297C9.64754 13.5 10.543 14.3954 10.543 15.5V19.5C10.543 20.6046 9.64754 21.5 8.54297 21.5H4.54297C3.4384 21.5 2.54297 20.6046 2.54297 19.5V15.5C2.54297 14.3954 3.4384 13.5 4.54297 13.5Z" stroke="#000A16" stroke-width="1.2"/>
<path fill-rule="evenodd" clip-rule="evenodd" d="M18.5999 13.7328C18.5999 13.4014 18.3313 13.1328 17.9999 13.1328C17.6685 13.1328 17.3999 13.4014 17.3999 13.7328L17.3999 16.9005H14.143C13.8116 16.9005 13.543 17.1692 13.543 17.5005C13.543 17.8319 13.8116 18.1005 14.143 18.1005H17.3999V19.4161V21.2677C17.3999 21.5991 17.6685 21.8677 17.9999 21.8677C18.3313 21.8677 18.5999 21.5991 18.5999 21.2677V19.4161V18.1005H19.9616H21.8573C22.1886 18.1005 22.4573 17.8319 22.4573 17.5005C22.4573 17.1692 22.1886 16.9005 21.8573 16.9005H19.9616H18.5999V13.7328Z" fill="#000A16"/>
</svg>
