<svg width="22" height="22" viewBox="0 0 22 22" fill="none" xmlns="http://www.w3.org/2000/svg">
<rect x="3.5" y="1.06641" width="6" height="7" rx="1" fill="#9DB6FE"/>
<rect x="15.5" y="1.06641" width="5" height="6" rx="1" fill="#9DB6FE"/>
<rect x="3.5" y="13.0664" width="6" height="6" rx="1" fill="#9DB6FE"/>
<path d="M4 1.19922H6H8C9.10457 1.19922 10 2.09465 10 3.19922V7.19922C10 8.30379 9.10457 9.19922 8 9.19922H4C2.89543 9.19922 2 8.30379 2 7.19922V3.19922C2 2.09465 2.89543 1.19922 4 1.19922Z" stroke="#0067DD" stroke-width="1.2"/>
<path d="M15 1.19922H17H19C20.1046 1.19922 21 2.09465 21 3.19922V7.19922C21 8.30379 20.1046 9.19922 19 9.19922H15C13.8954 9.19922 13 8.30379 13 7.19922V3.19922C13 2.09465 13.8954 1.19922 15 1.19922Z" stroke="#0067DD" stroke-width="1.2"/>
<path d="M3.54297 12.5664H5.54297H7.54297C8.64754 12.5664 9.54297 13.4618 9.54297 14.5664V18.5664C9.54297 19.671 8.64754 20.5664 7.54297 20.5664H3.54297C2.4384 20.5664 1.54297 19.671 1.54297 18.5664V14.5664C1.54297 13.4618 2.4384 12.5664 3.54297 12.5664Z" stroke="#0067DD" stroke-width="1.2"/>
<path fill-rule="evenodd" clip-rule="evenodd" d="M17.6 12.7988C17.6 12.4675 17.3314 12.1988 17 12.1988C16.6686 12.1988 16.4 12.4675 16.4 12.7988L16.4 15.9664H13.1426C12.8112 15.9664 12.5426 16.235 12.5426 16.5664C12.5426 16.8978 12.8112 17.1664 13.1426 17.1664H16.4V18.4822V20.3337C16.4 20.6651 16.6686 20.9337 17 20.9337C17.3314 20.9337 17.6 20.6651 17.6 20.3337V18.4822V17.1664H18.9612H20.8569C21.1882 17.1664 21.4569 16.8978 21.4569 16.5664C21.4569 16.235 21.1882 15.9664 20.8569 15.9664H18.9612H17.6V12.7988Z" fill="#0067DD"/>
</svg>
