<svg width="25" height="24" viewBox="0 0 25 24" fill="none" xmlns="http://www.w3.org/2000/svg">
<path d="M1.86618 14.8235H9.65476H17.4433C17.9956 14.8235 18.4433 15.2712 18.4433 15.8235V19.4558C18.4433 20.0138 17.9867 20.4639 17.4287 20.4557L1.85158 20.2283C1.30505 20.2203 0.86618 19.7749 0.86618 19.2284V15.8235C0.86618 15.2712 1.3139 14.8235 1.86618 14.8235Z" fill="white"/>
<path fill-rule="evenodd" clip-rule="evenodd" d="M0.499969 3.52941C0.499969 1.58017 2.13946 0 4.16188 0H17.3447C19.3672 0 21.0066 1.58017 21.0066 3.52941V5.22353C21.0066 5.61338 20.6787 5.92941 20.2743 5.92941C19.8698 5.92941 19.5419 5.61338 19.5419 5.22353V3.52941C19.5419 2.35987 18.5582 1.41176 17.3447 1.41176H4.16188C2.94843 1.41176 1.96473 2.35987 1.96473 3.52941V20.4706C1.96473 21.6401 2.94843 22.5882 4.16188 22.5882H17.3447C18.5582 22.5882 19.5419 21.6401 19.5419 20.4706V16.5176C19.5419 16.1278 19.8698 15.8118 20.2743 15.8118C20.6787 15.8118 21.0066 16.1278 21.0066 16.5176V20.4706C21.0066 22.4198 19.3672 24 17.3447 24H4.16188C2.13946 24 0.499969 22.4198 0.499969 20.4706V3.52941ZM4.82768 5.97647C4.82768 5.58662 5.15558 5.27059 5.56006 5.27059H13.0023C13.4067 5.27059 13.7346 5.58662 13.7346 5.97647C13.7346 6.36632 13.4067 6.68235 13.0023 6.68235H5.56006C5.15558 6.68235 4.82768 6.36632 4.82768 5.97647ZM4.82768 11.1933C4.82768 10.8034 5.15558 10.4874 5.56006 10.4874H9.9599C10.3644 10.4874 10.6923 10.8034 10.6923 11.1933C10.6923 11.5831 10.3644 11.8992 9.9599 11.8992H5.56006C5.15558 11.8992 4.82768 11.5831 4.82768 11.1933ZM4.82768 17.2706C4.82768 16.8807 5.15558 16.5647 5.56006 16.5647H15.7148C16.1193 16.5647 16.4472 16.8807 16.4472 17.2706C16.4472 17.6604 16.1193 17.9765 15.7148 17.9765H5.56006C5.15558 17.9765 4.82768 17.6604 4.82768 17.2706Z" fill="#000A16"/>
<path d="M20.0331 7.95276C22.2268 9.04356 23.3653 10.7788 23.4225 13.152C23.4304 13.4869 23.6425 13.7206 23.9535 13.7242C24.27 13.7282 24.5007 13.4889 24.5 13.1487C24.499 12.3852 24.3816 11.6389 24.1215 10.9156C23.1711 8.2712 20.6296 6.46901 17.7013 6.35364C17.5925 6.35364 17.4833 6.35199 17.3745 6.35364C17.0284 6.3599 16.7994 6.5745 16.8063 6.8847C16.8128 7.18435 17.0653 7.39368 17.4072 7.38873C18.3295 7.37522 19.2163 7.5463 20.0331 7.95243V7.95276Z" fill="#000A16"/>
<path d="M16.8132 9.28609C16.8563 9.53267 17.0953 9.71002 17.3911 9.70574C17.826 9.69947 18.2468 9.76639 18.656 9.90781C19.9622 10.3594 21.0232 11.592 21.005 13.1743C21.0012 13.494 21.234 13.7284 21.537 13.7258C21.839 13.7231 22.0894 13.4845 22.0732 13.1756C22.0557 12.8315 22.0371 12.482 21.9616 12.1464C21.5174 10.1712 19.7015 8.74086 17.5829 8.66504C17.441 8.67888 17.2929 8.67196 17.159 8.71053C16.9072 8.78338 16.7691 9.03293 16.8132 9.28609Z" fill="#000A16"/>
<path d="M15.8709 13.1297C15.8753 13.9653 16.5693 14.6246 17.4385 14.6187C18.3028 14.6127 18.9885 13.9406 18.983 13.1049C18.9775 12.2884 18.2663 11.6093 17.4133 11.6354C16.4711 11.6644 15.8681 12.3385 15.8709 13.1297Z" fill="#000A16"/>
</svg>
