<svg width="25" height="24" viewBox="0 0 25 24" fill="none" xmlns="http://www.w3.org/2000/svg">
<path d="M2 1H7.5H13C13.5523 1 14 1.44772 14 2V15C14 15.5523 13.5523 16 13 16H2C1.44772 16 1 15.5523 1 15V2C1 1.44772 1.44772 1 2 1Z" fill="#9DB6FE"/>
<path fill-rule="evenodd" clip-rule="evenodd" d="M0.5 3.52941C0.5 1.58017 2.13949 0 4.16191 0H17.3448C19.3672 0 21.0067 1.58017 21.0067 3.52941V5.22353C21.0067 5.61338 20.6788 5.92941 20.2743 5.92941C19.8698 5.92941 19.5419 5.61338 19.5419 5.22353V3.52941C19.5419 2.35987 18.5582 1.41176 17.3448 1.41176H4.16191C2.94846 1.41176 1.96476 2.35987 1.96476 3.52941V20.4706C1.96476 21.6401 2.94846 22.5882 4.16191 22.5882H17.3448C18.5582 22.5882 19.5419 21.6401 19.5419 20.4706V16.5176C19.5419 16.1278 19.8698 15.8118 20.2743 15.8118C20.6788 15.8118 21.0067 16.1278 21.0067 16.5176V20.4706C21.0067 22.4198 19.3672 24 17.3448 24H4.16191C2.13949 24 0.5 22.4198 0.5 20.4706V3.52941ZM4.82771 5.97647C4.82771 5.58662 5.15561 5.27059 5.56009 5.27059H13.0023C13.4068 5.27059 13.7347 5.58662 13.7347 5.97647C13.7347 6.36632 13.4068 6.68235 13.0023 6.68235H5.56009C5.15561 6.68235 4.82771 6.36632 4.82771 5.97647ZM4.82771 11.1933C4.82771 10.8034 5.15561 10.4874 5.56009 10.4874H9.95993C10.3644 10.4874 10.6923 10.8034 10.6923 11.1933C10.6923 11.5831 10.3644 11.8992 9.95993 11.8992H5.56009C5.15561 11.8992 4.82771 11.5831 4.82771 11.1933ZM4.82771 17.2706C4.82771 16.8807 5.15561 16.5647 5.56009 16.5647H15.7148C16.1193 16.5647 16.4472 16.8807 16.4472 17.2706C16.4472 17.6604 16.1193 17.9765 15.7148 17.9765H5.56009C5.15561 17.9765 4.82771 17.6604 4.82771 17.2706Z" fill="#0067DD"/>
<path d="M20.0331 7.95276C22.2268 9.04356 23.3653 10.7788 23.4225 13.152C23.4304 13.4869 23.6425 13.7206 23.9535 13.7242C24.27 13.7282 24.5007 13.4889 24.5 13.1487C24.499 12.3852 24.3816 11.6389 24.1215 10.9156C23.1711 8.2712 20.6296 6.46901 17.7013 6.35364C17.5925 6.35364 17.4833 6.35199 17.3745 6.35364C17.0284 6.3599 16.7994 6.5745 16.8063 6.8847C16.8128 7.18435 17.0653 7.39368 17.4072 7.38873C18.3295 7.37522 19.2163 7.5463 20.0331 7.95243V7.95276Z" fill="#0067DD"/>
<path d="M16.8133 9.28609C16.8563 9.53267 17.0953 9.71002 17.3912 9.70574C17.8261 9.69947 18.2469 9.76639 18.6561 9.90781C19.9623 10.3594 21.0233 11.592 21.0051 13.1743C21.0013 13.494 21.2341 13.7284 21.5371 13.7258C21.8391 13.7231 22.0895 13.4845 22.0733 13.1756C22.0557 12.8315 22.0371 12.482 21.9617 12.1464C21.5175 10.1712 19.7016 8.74086 17.583 8.66504C17.4411 8.67888 17.293 8.67196 17.1591 8.71053C16.9073 8.78338 16.7692 9.03293 16.8133 9.28609Z" fill="#0067DD"/>
<path d="M15.8709 13.1297C15.8753 13.9653 16.5693 14.6246 17.4385 14.6187C18.3028 14.6127 18.9885 13.9406 18.983 13.1049C18.9775 12.2884 18.2663 11.6093 17.4133 11.6354C16.4711 11.6644 15.8681 12.3385 15.8709 13.1297Z" fill="#0067DD"/>
</svg>