<svg width="56" height="55" viewBox="0 0 56 55" fill="none" xmlns="http://www.w3.org/2000/svg">
<rect x="0.5" width="55" height="55" rx="16" fill="#FFF3F9"/>
<rect x="5" y="4.5" width="46" height="46" rx="23" fill="#FFF3F9"/>
<path d="M14.25 39.7499V19.4833C14.25 18.3787 15.1454 17.4833 16.25 17.4833H40.25C41.3546 17.4833 42.25 18.3787 42.25 19.4833V39.7499C42.25 40.8545 41.3546 41.7499 40.25 41.7499H16.25C15.1454 41.7499 14.25 40.8545 14.25 39.7499Z" stroke="#E677AF" stroke-width="1.5"/>
<path d="M14.25 38.0167L14.25 15.75C14.25 14.6454 15.1454 13.75 16.25 13.75L39.45 13.75C40.1664 13.75 41.4327 14.0799 41.9827 15.2464" stroke="#E677AF" stroke-width="1.5" stroke-linecap="round"/>
<path d="M21.7168 37.0833V36.4166C21.7168 34.2075 23.5077 32.4166 25.7168 32.4166H30.7835C32.9926 32.4166 34.7835 34.2075 34.7835 36.4166V37.0833" stroke="#E677AF" stroke-width="1.5" stroke-linecap="round"/>
<circle cx="28.2507" cy="25.8833" r="3.91667" stroke="#E677AF" stroke-width="1.5"/>
</svg>
