<svg width="56" height="55" viewBox="0 0 56 55" fill="none" xmlns="http://www.w3.org/2000/svg">
<rect x="0.5" width="55" height="55" rx="16" fill="#F1FAE8"/>
<rect x="5" y="4.5" width="46" height="46" rx="23" fill="#F1FAE8"/>
<path d="M28.8233 40.625L17.6468 40.625C16.5423 40.625 15.6468 39.7296 15.6468 38.625L15.6468 16.375C15.6468 15.2704 16.5423 14.375 17.6468 14.375L31.7645 14.375C32.869 14.375 33.7645 15.2704 33.7645 16.375L33.7645 38.625C33.7645 39.7296 34.6599 40.625 35.7645 40.625L37.0586 40.625" stroke="#68B916"/>
<path d="M19.7637 25.25V19.25C19.7637 18.9739 19.9875 18.75 20.2637 18.75H29.146C29.4222 18.75 29.646 18.9739 29.646 19.25V25.25C29.646 25.5261 29.4222 25.75 29.146 25.75H20.2637C19.9875 25.75 19.7637 25.5261 19.7637 25.25Z" stroke="#68B916"/>
<path d="M19.7637 34.5H26.3519" stroke="#68B916" stroke-linecap="round"/>
<path d="M19.7637 31H29.646" stroke="#68B916" stroke-linecap="round"/>
<path d="M18.9388 40.625L38.3506 40.625C39.4552 40.625 40.3506 39.7296 40.3506 38.625L40.3506 25C40.3506 24.4477 39.9029 24 39.3506 24L37.88 24" stroke="#68B916" stroke-linecap="round"/>
</svg>
